<svg xmlns="http://www.w3.org/2000/svg" viewBox="4000 126 12 12">
  <defs>
    <style>
      .cls-1 {
        fill: #374e62;
      }
    </style>
  </defs>
  <g id="ic_help_outline_24px" transform="translate(3980)">
    <path id="ic_help_outline_24px-2" data-name="ic_help_outline_24px" class="cls-1" d="M7.4,11.6H8.6V10.4H7.4ZM8,2a6,6,0,1,0,6,6A6,6,0,0,0,8,2ZM8,12.8A4.8,4.8,0,1,1,12.8,8,4.806,4.806,0,0,1,8,12.8ZM8,4.4A2.4,2.4,0,0,0,5.6,6.8H6.8a1.2,1.2,0,0,1,2.4,0c0,1.2-1.8,1.05-1.8,3H8.6c0-1.35,1.8-1.5,1.8-3A2.4,2.4,0,0,0,8,4.4Z" transform="translate(18 124)"/>
  </g>
</svg>
