<svg xmlns="http://www.w3.org/2000/svg" viewBox="4000 98 12 7.636">
  <defs>
    <style>
      .cls-1 {
        fill: #374e62;
      }
    </style>
  </defs>
  <g id="ic_group_24px" transform="translate(3980)">
    <path id="ic_group_24px-2" data-name="ic_group_24px" class="cls-1" d="M9.182,8.273A1.636,1.636,0,1,0,7.545,6.636,1.63,1.63,0,0,0,9.182,8.273Zm-4.364,0A1.636,1.636,0,1,0,3.182,6.636,1.63,1.63,0,0,0,4.818,8.273Zm0,1.091C3.547,9.364,1,10,1,11.273v1.364H8.636V11.273C8.636,10,6.089,9.364,4.818,9.364Zm4.364,0c-.158,0-.338.011-.529.027a2.3,2.3,0,0,1,1.075,1.882v1.364H13V11.273C13,10,10.453,9.364,9.182,9.364Z" transform="translate(19 93)"/>
  </g>
</svg>
