<?xml version="1.0" encoding="utf-8"?>
<!-- Generator: Adobe Illustrator 16.0.2, SVG Export Plug-In . SVG Version: 6.00 Build 0)  -->
<!DOCTYPE svg PUBLIC "-//W3C//DTD SVG 1.1//EN" "http://www.w3.org/Graphics/SVG/1.1/DTD/svg11.dtd">
<svg version="1.1" id="Layer_1" xmlns="http://www.w3.org/2000/svg" xmlns:xlink="http://www.w3.org/1999/xlink" x="0px" y="0px"
	 width="1024px" height="423.665px" viewBox="0 0 1024 423.665" enable-background="new 0 0 1024 423.665" xml:space="preserve">
<polygon fill="#575756" points="100.79,310.035 106.063,310.035 115.496,329.85 115.599,329.85 124.926,310.035 129.967,310.035 
	129.967,349.14 126.187,349.14 126.187,315.631 126.078,315.631 116.808,335.541 113.906,335.541 104.591,315.681 104.404,315.681 
	104.404,349.14 100.79,349.14 "/>
<path fill="#575756" d="M137.257,339.708v-8.496c0-6.859,4.383-10.644,10.139-10.644c5.928,0,9.442,3.734,9.442,9.882v5.479h-15.674
	v3.829c0,4.722,2.448,6.81,7.012,6.81c3.126,0,5.269-1.149,6.788-2.024l1.437,2.581c-2.523,1.979-5.604,2.686-8.774,2.686
	C141.536,349.809,137.257,346.792,137.257,339.708 M153.171,333.123v-3.005c0-3.29-1.483-6.578-6.051-6.578
	c-4.21,0-5.956,3.336-5.956,6.578v3.005H153.171z"/>
<path fill="#575756" d="M163.632,321.229h3.613v4.822h0.066c1.693-3.785,5.154-5.483,8.724-5.483c3.768,0,6.188,2.579,6.8,5.44
	h0.053c1.802-3.742,5.141-5.44,8.724-5.44c4.151,0,6.953,3.009,6.953,7.076v21.496h-3.826v-20.396c0-3.786-1.868-5.098-4.841-5.098
	c-3.229,0-6.788,3.117-6.856,7.185v18.309h-3.826v-20.672c-0.051-3.51-1.937-4.821-4.83-4.821c-3.339,0-6.909,3.341-6.909,7.51
	v17.983h-3.845V321.229z"/>
<path fill="#575756" d="M210.021,344.536h-0.1l-0.065,4.604h-3.404v-39.105h3.845v15.642h0.174c1.527-3.522,5.032-5.165,7.837-5.165
	c5.257,0,7.784,3.854,7.784,8.239v12.118c0,5.755-3.888,8.94-8.446,8.94C214.745,349.809,211.064,347.89,210.021,344.536
	 M222.247,341.032v-12.069c0-3.235-1.747-5.322-5.378-5.322c-3.112,0-6.571,3.235-6.571,8.121v7.122
	c0,4.498,3.076,8.014,6.755,8.014C220.117,346.897,222.247,344.917,222.247,341.032"/>
<path fill="#575756" d="M232.127,339.708v-8.496c0-6.859,4.395-10.644,10.15-10.644c5.91,0,9.425,3.734,9.425,9.882v5.479h-15.687
	v3.829c0,4.722,2.483,6.81,7.03,6.81c3.108,0,5.25-1.149,6.787-2.024l1.44,2.581c-2.53,1.979-5.613,2.686-8.79,2.686
	C236.399,349.809,232.127,346.792,232.127,339.708 M248.021,333.123v-3.005c0-3.29-1.471-6.578-6.013-6.578
	c-4.248,0-5.993,3.336-5.993,6.578v3.005H248.021z"/>
<path fill="#575756" d="M258.485,321.229h3.646v4.822h0.045c2.021-4.161,4.714-5.146,7.901-5.146c0.536,0,1.361,0.05,1.854,0.175
	v3.436c-1.048-0.163-1.854-0.163-2.314-0.163c-3.661,0-7.231,2.138-7.275,7.246v17.542h-3.858V321.229z"/>
<path fill="#575756" d="M286.022,339.757v-9.033c0-6.534,4.248-10.156,9.942-10.156c5.91,0,10.029,3.404,10.029,9.987v9.053
	c0,6.846-4.228,10.201-9.938,10.201C290.079,349.809,286.022,346.406,286.022,339.757 M302.148,339.658v-9.32
	c0-3.736-1.82-6.761-6.185-6.761c-4.459,0-6.097,3.188-6.097,7.028v9.103c0,4.286,1.805,6.959,6.251,6.959
	C300.685,346.667,302.148,343.606,302.148,339.658"/>
<path fill="#575756" d="M315.093,324.458h-4.274v-3.173h4.274v-4.778c0-4.61,2.68-7.123,6.859-7.123
	c1.094,0,2.179,0.112,3.235,0.387v3.126c-0.702-0.227-1.823-0.275-2.746-0.275c-2.033,0-3.517,1.037-3.517,3.835v4.829h5.603v3.173
	h-5.603v24.682h-3.832V324.458z"/>
<path fill="#575756" d="M342.341,344.157v-19.741h-4.553v-3.074h4.553v-8.12h3.847v8.12h7.165v3.074h-7.165v18.534
	c0,2.243,1.146,3.242,3.614,3.242c1.081,0,2.354-0.281,3.345-0.612v3.187c-1.694,0.6-3.286,0.868-4.624,0.868
	C345.572,349.634,342.341,348.597,342.341,344.157"/>
<path fill="#575756" d="M359.062,310.035h3.845v15.792h0.109c1.636-3.618,4.989-5.259,8.437-5.259c4.394,0,7.019,3.186,7.019,7.134
	v21.438h-3.827v-20.29c0-3.779-1.643-5.21-4.821-5.21c-3.359,0-6.917,3.449-6.917,7.683v17.817h-3.845V310.035z"/>
<path fill="#575756" d="M385.333,339.708v-8.496c0-6.859,4.394-10.644,10.151-10.644c5.91,0,9.417,3.734,9.417,9.882v5.479h-15.68
	v3.829c0,4.722,2.465,6.81,7.018,6.81c3.12,0,5.264-1.149,6.794-2.024l1.44,2.581c-2.521,1.979-5.603,2.686-8.79,2.686
	C389.605,349.809,385.333,346.792,385.333,339.708 M401.229,333.123v-3.005c0-3.29-1.472-6.578-6.019-6.578
	c-4.229,0-5.988,3.336-5.988,6.578v3.005H401.229z"/>
<path fill="#575756" d="M419.101,344.706l2.679-2.805c2.971,2.697,5.331,4.335,10.155,4.335c4.654,0,7.46-2.893,7.46-6.747
	c0-4.328-3.003-6.191-6.079-7.664l-4.932-2.368c-4.614-2.137-7.35-5.43-7.35-9.87c0-5.717,4.329-10.264,11.13-10.264
	c4.325,0,8.228,1.38,10.798,4.498l-2.57,2.578c-2.527-2.354-4.78-3.627-8.498-3.627c-3.851,0-6.697,2.098-6.697,6.371
	c0,3.187,1.869,4.997,5.592,6.747l4.553,2.198c5.111,2.462,8.175,5.711,8.175,10.758c0,6.459-4.989,10.957-12.026,10.957
	C426.241,349.803,422.063,347.992,419.101,344.706"/>
<polygon fill="#575756" points="450.468,310.035 454.594,310.035 471.591,340.97 471.697,340.97 471.697,310.035 475.315,310.035 
	475.315,349.14 471.767,349.14 454.209,316.837 454.082,316.837 454.082,349.14 450.468,349.14 "/>
<path fill="#575756" d="M482.773,338.283v-17.28c0-7.025,5.199-11.618,12.789-11.618c7.002,0,11.676,4.174,11.676,9.934v3.012
	h-3.667v-2.188c0-4.186-2.649-7.369-8.191-7.369c-5.535,0-8.482,3.522-8.482,8.457v16.554c0,6.042,3.554,8.572,8.664,8.572
	c5.128,0,8.009-2.924,8.009-6.973v-2.579h3.667v2.904c0,6.146-4.674,10.096-11.676,10.096
	C488.196,349.803,482.773,346.017,482.773,338.283"/>
<rect x="512.435" y="331.375" fill="#575756" width="11.4" height="3.067"/>
<polygon fill="#575756" points="530.201,310.035 534.268,310.035 534.268,345.636 551.428,345.636 551.428,349.14 530.201,349.14 
	"/>
<path fill="#575756" d="M555.919,341.793c0-6.521,5.717-8.883,10.264-8.883h5.311v-4.761c0-3.304-2.198-4.784-5.473-4.784
	c-2.961,0-5.771,1.431-5.771,4.448v1.593H556.8v-1.705c0-4.718,4.324-7.134,9.657-7.134c4.931,0,8.928,2.247,8.928,7.408v14.094
	c0,2.135,0.237,5.697,0.274,7.07h-3.56l-0.221-4.435h-0.111c-1.816,3.997-5.646,5.047-8.177,5.047
	C559.536,349.752,555.919,347.128,555.919,341.793 M571.493,339.882v-4.342h-4.729c-3.229,0-6.89,1.043-6.89,5.703
	c0,3.787,2.342,5.548,5.041,5.548C568.476,346.792,571.493,343.879,571.493,339.882"/>
<polygon fill="#575756" points="579.938,321.229 584.049,321.229 590.309,343.936 590.353,343.936 596.88,321.229 600.484,321.229 
	591.945,349.204 588.216,349.204 "/>
<path fill="#575756" d="M603.739,341.793c0-6.521,5.697-8.883,10.246-8.883h5.311v-4.761c0-3.304-2.175-4.784-5.46-4.784
	c-2.975,0-5.761,1.431-5.761,4.448v1.593h-3.462v-1.705c0-4.718,4.331-7.134,9.646-7.134c4.929,0,8.939,2.247,8.939,7.408v14.094
	c0,2.135,0.219,5.697,0.264,7.07h-3.55l-0.218-4.435h-0.125c-1.806,3.997-5.635,5.047-8.159,5.047
	C607.351,349.752,603.739,347.128,603.739,341.793 M619.296,339.882v-4.342h-4.698c-3.248,0-6.922,1.043-6.922,5.703
	c0,3.787,2.374,5.548,5.053,5.548C616.278,346.792,619.296,343.879,619.296,339.882"/>
<path fill="#575756" d="M630.938,343.663v-33.628h3.849v32.958c0,1.818,0.813,3.13,3.224,3.13c0.725,0,1.693-0.105,2.36-0.205v3.011
	c-1.273,0.438-2.486,0.536-3.629,0.536C633.068,349.464,630.938,347.449,630.938,343.663"/>
<path fill="#575756" d="M646.02,310.583h3.836v5.873h-3.836V310.583z M646.02,321.229h3.836v27.911h-3.836V321.229z"/>
<path fill="#575756" d="M657.951,321.229h3.635v4.711h0.051c1.812-3.725,5.147-5.372,8.728-5.372c4.222,0,7.015,3.186,7.015,7.134
	v21.438h-3.848v-20.396c0-3.729-1.812-5.098-4.823-5.098c-3.336,0-6.89,3.341-6.89,7.51v17.983h-3.867V321.229z"/>
<path fill="#575756" d="M694.271,338.283v-17.054c0-7.078,5.298-11.906,12.769-11.906c7.146,0,11.971,4.173,11.971,9.926v2.804
	h-3.738v-2.253c0-4.055-3.133-7.079-8.28-7.079c-5.587,0-8.658,3.787-8.658,8.671v16.63c0,5.26,3.228,8.334,8.774,8.334
	c6.078,0,8.203-3.362,8.203-7.404v-6.802h-8.157v-3.235h12.024v10.519c0,6.086-4.741,10.371-12.139,10.371
	C699.757,349.803,694.271,346.017,694.271,338.283"/>
<path fill="#575756" d="M726.767,321.229h3.65v4.822h0.049c2.019-4.161,4.699-5.146,7.885-5.146c0.548,0,1.381,0.05,1.868,0.175
	v3.436c-1.043-0.163-1.868-0.163-2.295-0.163c-3.686,0-7.233,2.138-7.309,7.246v17.542h-3.849V321.229z"/>
<path fill="#575756" d="M744.434,339.757v-9.033c0-6.534,4.222-10.156,9.933-10.156c5.918,0,10.033,3.404,10.033,9.987v9.053
	c0,6.846-4.222,10.201-9.92,10.201C748.506,349.809,744.434,346.406,744.434,339.757 M760.57,339.658v-9.32
	c0-3.736-1.816-6.761-6.204-6.761c-4.452,0-6.097,3.188-6.097,7.028v9.103c0,4.286,1.829,6.959,6.253,6.959
	C759.071,346.667,760.57,343.606,760.57,339.658"/>
<path fill="#575756" d="M771.289,342.669v-21.44h3.854v20.289c0,3.736,1.652,5.148,4.774,5.148c3.617,0,6.972-3.386,6.972-7.607
	v-17.83h3.842v27.911h-3.461l-0.17-4.772h-0.104c-1.437,3.399-4.885,5.436-8.502,5.436
	C774.263,349.803,771.289,346.897,771.289,342.669"/>
<path fill="#575756" d="M798.726,321.229h3.616v4.598h0.102c1.706-3.711,5.167-5.309,8.008-5.309c5.167,0,7.91,3.672,7.91,8.058
	v12.069c0,5.71-3.344,9.158-8.453,9.158c-2.811,0-6.14-1.7-7.228-4.942h-0.124v14.051h-3.831V321.229z M814.53,341.082v-11.956
	c0-3.012-1.548-5.485-5.389-5.485c-3.68,0-6.585,3.411-6.585,8.283v6.747c0,4.711,2.974,8.221,6.92,8.221
	C812.388,346.891,814.53,345.031,814.53,341.082"/>
<polygon fill="#2C4255" points="156.379,89.063 100.79,235.259 131.756,235.259 174.042,119.268 217.156,235.259 250.124,235.259 
	193.186,89.063 "/>
<polygon fill="#2C4255" points="279.447,112.181 239.007,112.181 230.159,89.055 351.851,89.055 351.851,112.181 309.058,112.181 
	309.058,235.259 279.447,235.259 "/>
<polygon fill="#2C4255" points="399.492,167.104 399.492,235.259 369.851,235.259 369.851,89.06 399.492,89.06 399.492,151.765 
	453.432,89.06 489.058,89.06 428.425,157.551 491.551,235.259 454.09,235.259 "/>
<rect x="508.199" y="89.063" fill="#2C4255" width="29.623" height="146.201"/>
<polygon fill="#2C4255" points="666.022,195.989 666.022,89.063 693.185,89.063 693.185,235.27 657.52,235.27 598.76,128.17 
	598.76,235.27 571.599,235.27 571.599,89.063 607.587,89.063 "/>
<path fill="#2C4255" d="M808.033,117.31c-9.324-4.81-19.478-7.94-32.127-7.94c-10.309,0-24.995,4.619-24.995,18.647
	c0,14.014,17.192,17.804,33.336,24.256c19.451,7.747,34.114,17.81,34.114,41.574c0,30.542-24.963,46.208-57.261,46.208
	c-16.497,0-30.953-3.799-41.805-9.244l3.662-26.57c9.994,6.43,23.819,11.235,37.645,11.235c15.304,0,26.599-5.963,26.599-19.147
	c0-13.221-15.948-17.988-31.941-24.417c-16.997-6.775-35.139-15.366-35.139-40.767c0-30.36,27.329-45.369,54.125-45.369
	c15.46,0,26.966,3.13,36.962,7.902L808.033,117.31z"/>
</svg>
