<svg xmlns="http://www.w3.org/2000/svg" viewBox="4032 288 12 12">
  <defs>
    <style>
      .cls-1 {
        fill: #fff;
      }
    </style>
  </defs>
  <g id="ic_palette_24px" transform="translate(3980)">
    <path id="ic_palette_24px-2" data-name="ic_palette_24px" class="cls-1" d="M9,3A6,6,0,0,0,9,15a1,1,0,0,0,.74-1.673,1,1,0,0,1,.747-1.66h1.18A3.335,3.335,0,0,0,15,8.333C15,5.387,12.313,3,9,3ZM5.333,9a1,1,0,1,1,1-1A1,1,0,0,1,5.333,9Zm2-2.667a1,1,0,1,1,1-1A1,1,0,0,1,7.333,6.333Zm3.333,0a1,1,0,1,1,1-1A1,1,0,0,1,10.667,6.333Zm2,2.667a1,1,0,1,1,1-1A1,1,0,0,1,12.667,9Z" transform="translate(49 285)"/>
  </g>
</svg>
