<?xml version="1.0" encoding="utf-8"?>
<!-- Generator: Adobe Illustrator 22.0.0, SVG Export Plug-In . SVG Version: 6.00 Build 0)  -->
<svg version="1.1" id="Layer_1" xmlns="http://www.w3.org/2000/svg" xmlns:xlink="http://www.w3.org/1999/xlink" x="0px" y="0px"
	 viewBox="0 0 24 24" style="enable-background:new 0 0 24 24;" xml:space="preserve">
<style type="text/css">
	.st0{fill:#FFFFFF;}
</style>
<g>
	<g>
		<path class="st0" d="M3.3,22H2.5C1.7,22,1,21.3,1,20.5S1.7,19,2.5,19h1.1c0.6,0,1.2-0.4,1.4-1l0.7-2L0.7,4.2
			c-0.4-0.7-0.1-1.6,0.6-2C1.6,2,2,2,2.4,2.1c0.4,0.1,0.7,0.4,0.9,0.7l4,9l3.3-9c0.4-0.8,1.3-1.1,2-0.7c0.7,0.4,1,1.3,0.7,2l-5.9,15
			C6.8,20.9,5.1,22,3.3,22z M2.5,20C2.2,20,2,20.2,2,20.5S2.2,21,2.5,21h0.8c1.4,0,2.7-0.9,3.3-2.2l5.9-15c0.1-0.2,0.1-0.3,0-0.4
			c0-0.1-0.1-0.2-0.3-0.3C12.1,3,12,3,11.8,3c-0.1,0-0.2,0.1-0.3,0.3L7.8,13.3c-0.1,0.2-0.3,0.3-0.5,0.3c-0.2,0-0.4-0.1-0.5-0.3
			L2.4,3.2c0-0.1-0.2-0.2-0.3-0.2C2,3,1.9,3,1.8,3.1C1.5,3.2,1.4,3.5,1.6,3.7l5.2,12.1c0.1,0.1,0.1,0.3,0,0.4L6,18.4
			c-0.4,1-1.3,1.6-2.3,1.6L2.5,20L2.5,20z"/>
	</g>
	<g>
		<path class="st0" d="M22,13c-1,0-5.8-0.5-6.1-0.5c-0.2,0-0.4-0.2-0.4-0.4c0-0.2,0.1-0.5,0.4-0.5C16.4,11.4,21,10,22,10
			c0.8,0,1.5,0.7,1.5,1.5S22.8,13,22,13z M18.7,11.8c1.4,0.1,2.8,0.2,3.3,0.2c0.3,0,0.5-0.2,0.5-0.5S22.3,11,22,11
			C21.6,11,20.2,11.4,18.7,11.8z"/>
	</g>
	<g>
		<path class="st0" d="M14,9c-0.2,0-0.4-0.1-0.4-0.3c-0.1-0.2-0.1-0.4,0.1-0.6c0.4-0.3,3.6-3.3,4.4-3.8c0.7-0.5,1.5-0.4,2.1,0.2
			c0.2,0.2,0.4,0.6,0.4,0.9c0.1,0.5-0.2,1.1-0.7,1.5C18.4,8,14.3,8.9,14.1,9C14.1,9,14,9,14,9z M19.1,5c-0.2,0-0.4,0.1-0.5,0.2
			c-0.4,0.3-1.6,1.3-2.7,2.3c1.3-0.4,2.7-0.9,3.3-1.4c0.2-0.2,0.3-0.4,0.3-0.5c0,0,0-0.1,0-0.1c0-0.1,0-0.2-0.1-0.3
			C19.3,5.1,19.2,5,19.1,5z"/>
	</g>
	<g>
		<path class="st0" d="M19.1,19c-0.3,0-0.7-0.1-1-0.3c-0.8-0.5-4-3.5-4.4-3.8c-0.2-0.2-0.2-0.4-0.1-0.6c0.1-0.2,0.3-0.3,0.6-0.3
			c0.2,0,4.3,1,5.7,2.1c0.4,0.4,0.8,1,0.7,1.5c0,0.3-0.2,0.7-0.4,0.9C19.8,18.8,19.5,19,19.1,19z M15.9,15.5c1.1,1,2.3,2.1,2.7,2.3
			c0.1,0.1,0.5,0.3,0.8,0c0.1-0.1,0.1-0.2,0.1-0.3c0,0,0-0.1,0-0.1c0-0.1-0.1-0.3-0.3-0.5C18.6,16.4,17.1,15.9,15.9,15.5z"/>
	</g>
</g>
</svg>
